<?xml version="1.0" standalone="no"?>
<!DOCTYPE svg PUBLIC "-//W3C//DTD SVG 20010904//EN"
 "http://www.w3.org/TR/2001/REC-SVG-20010904/DTD/svg10.dtd">
<svg version="1.0" xmlns="http://www.w3.org/2000/svg"
 width="740.000000pt" height="740.000000pt" viewBox="0 0 740.000000 740.000000"
 preserveAspectRatio="xMidYMid meet">
<metadata>
Created by potrace 1.11, written by Peter Selinger 2001-2013
</metadata>
<g transform="translate(0.000000,740.000000) scale(0.100000,-0.100000)"
fill="#000000" stroke="none">
<path d="M460 3800 l0 -3601 38 1 c20 0 45 0 55 0 9 0 25 0 35 0 9 0 63 0 120
0 57 -1 107 2 112 5 5 3 11 1 14 -4 4 -6 18 -6 36 -1 19 5 30 5 30 -1 0 -6 5
-7 10 -4 6 4 32 6 58 6 45 -1 60 -1 100 -1 9 0 43 0 75 -1 31 0 61 3 66 6 5 3
12 2 15 -3 2 -4 32 -5 65 -2 34 3 61 3 61 -1 0 -4 13 -4 30 1 17 5 30 5 30 0
0 -5 13 -5 29 0 15 4 34 4 42 0 7 -5 20 -5 29 0 9 5 21 5 28 1 6 -4 39 -4 72
-1 33 3 60 3 60 -1 0 -4 14 -4 30 1 17 5 30 5 30 0 0 -5 13 -5 29 0 15 4 34 4
42 0 7 -5 20 -5 29 0 9 5 22 5 28 1 7 -4 35 -5 62 -1 27 4 55 3 62 -1 6 -4 19
-4 29 1 9 5 19 6 23 3 8 -8 122 -6 135 2 5 3 12 1 15 -4 3 -4 24 -5 46 -1 22
4 43 4 45 -1 3 -4 19 -4 35 1 19 5 30 5 30 -1 0 -6 5 -7 10 -4 6 4 32 6 58 6
45 -1 61 -1 100 -1 9 0 63 0 120 0 57 -1 107 2 112 5 5 3 11 1 14 -4 4 -6 18
-6 36 -1 19 5 30 5 30 -1 0 -6 5 -7 10 -4 6 4 32 6 58 6 45 -1 60 -1 100 -1 9
0 43 0 75 -1 31 0 61 3 66 6 5 3 12 2 15 -3 2 -4 32 -5 65 -2 34 3 61 3 61 -1
0 -4 13 -4 30 1 17 5 30 5 30 0 0 -5 13 -5 29 0 15 4 34 4 42 0 7 -5 20 -5 29
0 9 5 21 5 28 1 6 -4 39 -4 72 -1 33 3 60 3 60 -1 0 -4 13 -4 30 1 16 5 30 5
30 1 0 -5 11 -6 25 -3 l25 4 0 -101 0 -101 1620 0 1620 0 0 3600 0 3600 -67 1
c-38 1 -72 0 -78 -1 -14 -3 -46 -2 -70 3 -11 2 -34 1 -52 -4 -18 -4 -35 -3
-38 1 -3 5 -18 5 -34 0 -15 -4 -34 -4 -41 0 -6 4 -27 4 -46 0 -19 -4 -36 -4
-39 0 -3 5 -17 5 -32 1 -14 -4 -48 -4 -73 -1 -26 3 -56 3 -66 -1 -11 -3 -28
-3 -39 1 -11 4 -29 4 -40 0 -11 -4 -30 -4 -41 1 -13 4 -26 3 -33 -4 -8 -8 -11
-7 -11 3 0 10 -3 11 -11 3 -6 -6 -25 -7 -50 -3 -24 5 -39 3 -39 -3 0 -5 -5 -5
-13 2 -8 6 -17 8 -20 4 -4 -3 -33 -5 -64 -4 -32 1 -64 2 -70 2 -65 -1 -81 0
-103 2 -14 2 -40 0 -58 -4 -17 -4 -34 -3 -37 1 -3 5 -18 5 -34 0 -15 -4 -34
-4 -41 0 -6 4 -27 4 -46 0 -19 -4 -36 -4 -39 0 -3 5 -17 5 -32 1 -14 -4 -48
-4 -73 -1 -26 3 -56 3 -66 -1 -11 -3 -28 -3 -39 1 -11 4 -29 4 -40 0 -11 -4
-30 -4 -41 1 -13 4 -26 3 -33 -4 -8 -8 -11 -7 -11 3 0 10 -3 11 -11 3 -6 -6
-25 -7 -50 -3 -24 5 -39 3 -39 -3 0 -5 -5 -5 -13 2 -8 6 -17 8 -20 4 -4 -3
-33 -5 -64 -4 -32 1 -64 2 -70 2 -65 -1 -81 0 -103 2 -14 2 -40 0 -58 -4 -17
-4 -34 -3 -37 1 -3 5 -18 5 -34 0 -15 -4 -34 -4 -41 0 -6 4 -27 4 -46 0 -19
-4 -36 -4 -39 0 -3 5 -17 5 -32 1 -14 -4 -48 -4 -73 -1 -26 3 -56 3 -66 -1
-11 -3 -28 -3 -39 1 -11 4 -29 4 -40 0 -11 -4 -30 -4 -41 1 -13 4 -26 3 -33
-4 -8 -8 -11 -7 -11 3 0 10 -3 11 -11 3 -6 -6 -25 -7 -50 -3 -24 5 -39 3 -39
-3 0 -5 -5 -5 -13 2 -8 6 -17 8 -20 4 -8 -7 -116 -7 -124 0 -2 3 -17 2 -31 -2
-15 -4 -38 -5 -52 -1 -14 4 -31 2 -37 -3 -9 -6 -13 -6 -13 2 0 7 -8 8 -24 1
-13 -5 -26 -6 -29 -3 -3 3 -22 5 -41 5 l-36 0 0 99 0 99 -1620 0 -1620 0 0
-3600z"/>
</g>
</svg>
