<svg width="162" height="185" viewBox="0 0 162 185" fill="none" xmlns="http://www.w3.org/2000/svg">
<path d="M1 1H80V89H1V1Z" fill="#3DA4AB" stroke="white" stroke-width="2"/>
<path d="M82 6H161V94H82V6Z" fill="#FF9234" stroke="white" stroke-width="2"/>
<path d="M82 96H161V184H82V96Z" fill="#3DA4AB" stroke="white" stroke-width="2"/>
<path d="M1 91H80V179H1V91Z" fill="#FF9234" stroke="white" stroke-width="2"/>
<path d="M49.8409 53.024H31.1209L27.0889 62H23.3929L38.7529 28.4H42.2569L57.6169 62H53.8729L49.8409 53.024ZM48.5449 50.144L40.4809 32.096L32.4169 50.144H48.5449Z" fill="white"/>
<path d="M51.0735 135.2H54.4815V148.016C52.9135 149.392 51.0575 150.448 48.9135 151.184C46.7695 151.92 44.5135 152.288 42.1455 152.288C38.7855 152.288 35.7615 151.552 33.0735 150.08C30.3855 148.608 28.2735 146.576 26.7375 143.984C25.2015 141.36 24.4335 138.432 24.4335 135.2C24.4335 131.968 25.2015 129.056 26.7375 126.464C28.2735 123.84 30.3855 121.792 33.0735 120.32C35.7615 118.848 38.8015 118.112 42.1935 118.112C44.7535 118.112 47.1055 118.528 49.2495 119.36C51.3935 120.16 53.2015 121.36 54.6735 122.96L52.4655 125.216C49.8095 122.592 46.4335 121.28 42.3375 121.28C39.6175 121.28 37.1535 121.888 34.9455 123.104C32.7695 124.288 31.0575 125.952 29.8095 128.096C28.5615 130.208 27.9375 132.576 27.9375 135.2C27.9375 137.824 28.5615 140.192 29.8095 142.304C31.0575 144.416 32.7695 146.08 34.9455 147.296C37.1215 148.512 39.5695 149.12 42.2895 149.12C45.7455 149.12 48.6735 148.256 51.0735 146.528V135.2Z" fill="white"/>
<path d="M122.321 33.4C126.609 33.4 129.969 34.424 132.401 36.472C134.833 38.52 136.049 41.336 136.049 44.92C136.049 48.504 134.833 51.32 132.401 53.368C129.969 55.384 126.609 56.392 122.321 56.392H113.297V67H109.745V33.4H122.321ZM122.225 53.272C125.553 53.272 128.097 52.552 129.857 51.112C131.617 49.64 132.497 47.576 132.497 44.92C132.497 42.2 131.617 40.12 129.857 38.68C128.097 37.208 125.553 36.472 122.225 36.472H113.297V53.272H122.225Z" fill="white"/>
<path d="M119.73 123.4H123.282V157H119.73V123.4Z" fill="white"/>
</svg>
